<svg xmlns="http://www.w3.org/2000/svg" viewBox="0 0 64 64">
  <defs>
    <linearGradient id="bg" x1="0" y1="0" x2="1" y2="1">
      <stop offset="0%" stop-color="#070b14" />
      <stop offset="100%" stop-color="#0f1728" />
    </linearGradient>
    <linearGradient id="accent" x1="0" y1="0" x2="1" y2="1">
      <stop offset="0%" stop-color="#4f9bff" />
      <stop offset="100%" stop-color="#22d3ee" />
    </linearGradient>
  </defs>
  <rect width="64" height="64" rx="14" fill="url(#bg)" />
  <circle cx="46" cy="16" r="10" fill="#4f9bff" opacity="0.25" />
  <path d="M18 16h14c7 0 12 4 12 10 0 3-1 5-4 7 4 2 6 5 6 9 0 7-6 12-14 12H18V16Zm11 15c4 0 6-2 6-5s-2-5-6-5h-2v10h2Zm2 18c4 0 7-2 7-6 0-3-3-6-7-6h-4v12h4Z" fill="url(#accent)" />
</svg>
